<svg xmlns="http://www.w3.org/2000/svg" width="302" height="269" viewBox="0 0 302 269">
  <g fill="#000000" fill-rule="evenodd">
    <polygon points="301.868 50.838 297.065 52.387 292.377 54.116 287.993 55.99 283.71 57.98 279.529 60.169 275.666 62.556 272.02 65.006 268.677 67.582 265.436 70.284 262.514 73.121 259.909 76.022 257.508 79.048 255.424 82.137 253.645 85.299 252.183 88.514 251.04 91.739 250.1 95.017 249.579 98.368 249.579 155.437 184.022 73.31 184.022 57.926 184.644 54.576 185.483 51.288 186.742 48.064 188.189 44.848 189.969 41.687 192.052 38.597 194.454 35.571 197.073 32.671 199.995 29.842 203.12 27.131 206.564 24.555 210.225 22.114 214.088 19.727 218.153 17.539 222.436 15.539 226.921 13.675 231.623 11.936 236.311 10.387"/>
    <polygon points="160.843 110.735 183.501 139.08 138.2 167.029"/>
    <polygon points="157.921 40.462 66.161 268.728 .72 228.277 92.364 .02"/>
  </g>
</svg>
